<?xml version="1.0" standalone="no"?>
<!DOCTYPE svg PUBLIC "-//W3C//DTD SVG 20010904//EN"
 "http://www.w3.org/TR/2001/REC-SVG-20010904/DTD/svg10.dtd">
<svg version="1.0" xmlns="http://www.w3.org/2000/svg"
 width="1024.000000pt" height="1024.000000pt" viewBox="0 0 1024.000000 1024.000000"
 preserveAspectRatio="xMidYMid meet">

<g transform="translate(0.000000,1024.000000) scale(0.100000,-0.100000)"
fill="#000000" stroke="none">
<path d="M4855 7310 c-590 -34 -1140 -173 -1540 -390 l-112 -61 -6 -121 c-17
-312 -2 -937 28 -1218 70 -638 276 -1185 612 -1626 86 -113 89 -115 103 -62
29 116 63 226 88 292 l29 73 -58 93 c-236 375 -370 799 -424 1340 -18 180 -30
829 -18 940 l8 75 85 37 c271 118 633 206 1015 248 162 18 611 24 785 11 438
-34 810 -119 1136 -262 l91 -40 6 -234 c4 -130 4 -320 0 -424 l-6 -188 79 -7
c43 -4 122 -15 174 -26 52 -10 97 -16 100 -13 10 9 16 470 10 788 l-5 319 -90
53 c-270 158 -699 296 -1112 358 -279 41 -703 61 -978 45z"/>
<path d="M4936 6599 c-214 -25 -398 -110 -537 -249 -63 -62 -85 -94 -122 -171
-75 -157 -96 -315 -61 -472 52 -235 211 -392 506 -495 l87 -31 53 44 c54 44
248 175 309 208 42 24 45 22 -156 82 -340 100 -435 179 -435 360 0 154 128
283 327 332 89 21 256 21 347 -1 187 -45 324 -178 357 -348 l12 -58 188 0 189
0 0 48 c0 72 -35 196 -80 287 -168 335 -549 515 -984 464z"/>
<path d="M6325 5664 c-16 -2 -73 -9 -125 -15 -628 -71 -1270 -425 -1674 -923
-171 -211 -335 -500 -409 -726 -99 -296 -126 -608 -80 -904 22 -143 29 -154
37 -60 19 208 84 483 163 684 245 628 738 1150 1393 1475 314 156 627 247
1000 291 172 20 525 14 705 -11 133 -18 147 -18 115 -1 -101 54 -371 134 -565
167 -114 20 -477 35 -560 23z"/>
<path d="M6732 5370 c-104 -6 -107 -8 -117 -79 -11 -78 -53 -250 -89 -371
-170 -559 -534 -1053 -1025 -1391 -107 -75 -334 -207 -368 -215 -28 -7 -171
68 -333 173 -132 87 -202 140 -314 236 l-80 69 -17 -34 c-26 -51 -88 -222
-101 -277 -13 -58 -19 -51 159 -187 198 -150 492 -320 622 -358 50 -15 56 -14
115 5 144 48 407 201 626 365 481 360 838 852 1032 1424 68 200 164 617 147
635 -8 7 -163 11 -257 5z"/>
<path d="M5705 5096 c-127 -60 -255 -133 -255 -145 0 -4 16 -15 35 -24 57 -27
121 -93 145 -149 19 -44 22 -65 18 -133 -10 -175 -121 -286 -331 -329 -156
-32 -321 -15 -454 49 l-73 34 -56 -67 c-30 -37 -82 -106 -115 -154 l-59 -87
30 -21 c146 -104 448 -166 685 -142 451 47 734 314 752 707 6 136 -12 231 -63
331 -32 65 -125 185 -142 184 -4 -1 -57 -25 -117 -54z"/>
<path d="M4156 4733 c8 -65 42 -205 53 -216 5 -5 23 15 41 45 18 29 56 84 84
123 29 38 55 76 60 83 6 9 -21 12 -118 12 l-126 0 6 -47z"/>
</g>
</svg>
